<svg baseProfile="full" width="441" height="441" viewBox="0 0 441 441" xmlns="http://www.w3.org/2000/svg" xmlns:xlink="http://www.w3.org/1999/xlink"><path fill="#fff" d="M0 0h441v441H0z"/><defs><path id="a" d="M0 0h9v9H0z"/></defs><use x="36" y="36" xlink:href="#a"/><use x="36" y="45" xlink:href="#a"/><use x="36" y="54" xlink:href="#a"/><use x="36" y="63" xlink:href="#a"/><use x="36" y="72" xlink:href="#a"/><use x="36" y="81" xlink:href="#a"/><use x="36" y="90" xlink:href="#a"/><use x="36" y="108" xlink:href="#a"/><use x="36" y="126" xlink:href="#a"/><use x="36" y="162" xlink:href="#a"/><use x="36" y="207" xlink:href="#a"/><use x="36" y="225" xlink:href="#a"/><use x="36" y="234" xlink:href="#a"/><use x="36" y="252" xlink:href="#a"/><use x="36" y="261" xlink:href="#a"/><use x="36" y="288" xlink:href="#a"/><use x="36" y="342" xlink:href="#a"/><use x="36" y="351" xlink:href="#a"/><use x="36" y="360" xlink:href="#a"/><use x="36" y="369" xlink:href="#a"/><use x="36" y="378" xlink:href="#a"/><use x="36" y="387" xlink:href="#a"/><use x="36" y="396" xlink:href="#a"/><use x="45" y="36" xlink:href="#a"/><use x="45" y="90" xlink:href="#a"/><use x="45" y="117" xlink:href="#a"/><use x="45" y="135" xlink:href="#a"/><use x="45" y="153" xlink:href="#a"/><use x="45" y="180" xlink:href="#a"/><use x="45" y="189" xlink:href="#a"/><use x="45" y="198" xlink:href="#a"/><use x="45" y="207" xlink:href="#a"/><use x="45" y="216" xlink:href="#a"/><use x="45" y="225" xlink:href="#a"/><use x="45" y="234" xlink:href="#a"/><use x="45" y="243" xlink:href="#a"/><use x="45" y="252" xlink:href="#a"/><use x="45" y="279" xlink:href="#a"/><use x="45" y="342" xlink:href="#a"/><use x="45" y="396" xlink:href="#a"/><use x="54" y="36" xlink:href="#a"/><use x="54" y="54" xlink:href="#a"/><use x="54" y="63" xlink:href="#a"/><use x="54" y="72" xlink:href="#a"/><use x="54" y="90" xlink:href="#a"/><use x="54" y="117" xlink:href="#a"/><use x="54" y="144" xlink:href="#a"/><use x="54" y="153" xlink:href="#a"/><use x="54" y="162" xlink:href="#a"/><use x="54" y="171" xlink:href="#a"/><use x="54" y="189" xlink:href="#a"/><use x="54" y="225" xlink:href="#a"/><use x="54" y="261" xlink:href="#a"/><use x="54" y="279" xlink:href="#a"/><use x="54" y="297" xlink:href="#a"/><use x="54" y="324" xlink:href="#a"/><use x="54" y="342" xlink:href="#a"/><use x="54" y="360" xlink:href="#a"/><use x="54" y="369" xlink:href="#a"/><use x="54" y="378" xlink:href="#a"/><use x="54" y="396" xlink:href="#a"/><use x="63" y="36" xlink:href="#a"/><use x="63" y="54" xlink:href="#a"/><use x="63" y="63" xlink:href="#a"/><use x="63" y="72" xlink:href="#a"/><use x="63" y="90" xlink:href="#a"/><use x="63" y="108" xlink:href="#a"/><use x="63" y="135" xlink:href="#a"/><use x="63" y="162" xlink:href="#a"/><use x="63" y="180" xlink:href="#a"/><use x="63" y="225" xlink:href="#a"/><use x="63" y="243" xlink:href="#a"/><use x="63" y="252" xlink:href="#a"/><use x="63" y="297" xlink:href="#a"/><use x="63" y="315" xlink:href="#a"/><use x="63" y="324" xlink:href="#a"/><use x="63" y="342" xlink:href="#a"/><use x="63" y="360" xlink:href="#a"/><use x="63" y="369" xlink:href="#a"/><use x="63" y="378" xlink:href="#a"/><use x="63" y="396" xlink:href="#a"/><use x="72" y="36" xlink:href="#a"/><use x="72" y="54" xlink:href="#a"/><use x="72" y="63" xlink:href="#a"/><use x="72" y="72" xlink:href="#a"/><use x="72" y="90" xlink:href="#a"/><use x="72" y="108" xlink:href="#a"/><use x="72" y="135" xlink:href="#a"/><use x="72" y="144" xlink:href="#a"/><use x="72" y="162" xlink:href="#a"/><use x="72" y="180" xlink:href="#a"/><use x="72" y="189" xlink:href="#a"/><use x="72" y="198" xlink:href="#a"/><use x="72" y="207" xlink:href="#a"/><use x="72" y="225" xlink:href="#a"/><use x="72" y="234" xlink:href="#a"/><use x="72" y="243" xlink:href="#a"/><use x="72" y="261" xlink:href="#a"/><use x="72" y="270" xlink:href="#a"/><use x="72" y="315" xlink:href="#a"/><use x="72" y="342" xlink:href="#a"/><use x="72" y="360" xlink:href="#a"/><use x="72" y="369" xlink:href="#a"/><use x="72" y="378" xlink:href="#a"/><use x="72" y="396" xlink:href="#a"/><use x="81" y="36" xlink:href="#a"/><use x="81" y="90" xlink:href="#a"/><use x="81" y="108" xlink:href="#a"/><use x="81" y="126" xlink:href="#a"/><use x="81" y="135" xlink:href="#a"/><use x="81" y="144" xlink:href="#a"/><use x="81" y="153" xlink:href="#a"/><use x="81" y="162" xlink:href="#a"/><use x="81" y="171" xlink:href="#a"/><use x="81" y="189" xlink:href="#a"/><use x="81" y="234" xlink:href="#a"/><use x="81" y="252" xlink:href="#a"/><use x="81" y="297" xlink:href="#a"/><use x="81" y="342" xlink:href="#a"/><use x="81" y="396" xlink:href="#a"/><use x="90" y="36" xlink:href="#a"/><use x="90" y="45" xlink:href="#a"/><use x="90" y="54" xlink:href="#a"/><use x="90" y="63" xlink:href="#a"/><use x="90" y="72" xlink:href="#a"/><use x="90" y="81" xlink:href="#a"/><use x="90" y="90" xlink:href="#a"/><use x="90" y="108" xlink:href="#a"/><use x="90" y="126" xlink:href="#a"/><use x="90" y="144" xlink:href="#a"/><use x="90" y="162" xlink:href="#a"/><use x="90" y="180" xlink:href="#a"/><use x="90" y="198" xlink:href="#a"/><use x="90" y="216" xlink:href="#a"/><use x="90" y="234" xlink:href="#a"/><use x="90" y="252" xlink:href="#a"/><use x="90" y="270" xlink:href="#a"/><use x="90" y="288" xlink:href="#a"/><use x="90" y="306" xlink:href="#a"/><use x="90" y="324" xlink:href="#a"/><use x="90" y="342" xlink:href="#a"/><use x="90" y="351" xlink:href="#a"/><use x="90" y="360" xlink:href="#a"/><use x="90" y="369" xlink:href="#a"/><use x="90" y="378" xlink:href="#a"/><use x="90" y="387" xlink:href="#a"/><use x="90" y="396" xlink:href="#a"/><use x="99" y="108" xlink:href="#a"/><use x="99" y="117" xlink:href="#a"/><use x="99" y="126" xlink:href="#a"/><use x="99" y="144" xlink:href="#a"/><use x="99" y="189" xlink:href="#a"/><use x="99" y="198" xlink:href="#a"/><use x="99" y="207" xlink:href="#a"/><use x="99" y="234" xlink:href="#a"/><use x="99" y="252" xlink:href="#a"/><use x="99" y="261" xlink:href="#a"/><use x="99" y="288" xlink:href="#a"/><use x="99" y="306" xlink:href="#a"/><use x="99" y="315" xlink:href="#a"/><use x="108" y="36" xlink:href="#a"/><use x="108" y="45" xlink:href="#a"/><use x="108" y="54" xlink:href="#a"/><use x="108" y="72" xlink:href="#a"/><use x="108" y="90" xlink:href="#a"/><use x="108" y="108" xlink:href="#a"/><use x="108" y="153" xlink:href="#a"/><use x="108" y="162" xlink:href="#a"/><use x="108" y="171" xlink:href="#a"/><use x="108" y="216" xlink:href="#a"/><use x="108" y="225" xlink:href="#a"/><use x="108" y="234" xlink:href="#a"/><use x="108" y="252" xlink:href="#a"/><use x="108" y="270" xlink:href="#a"/><use x="108" y="279" xlink:href="#a"/><use x="108" y="288" xlink:href="#a"/><use x="108" y="297" xlink:href="#a"/><use x="108" y="306" xlink:href="#a"/><use x="108" y="324" xlink:href="#a"/><use x="108" y="333" xlink:href="#a"/><use x="108" y="342" xlink:href="#a"/><use x="108" y="351" xlink:href="#a"/><use x="108" y="360" xlink:href="#a"/><use x="108" y="369" xlink:href="#a"/><use x="108" y="396" xlink:href="#a"/><use x="117" y="45" xlink:href="#a"/><use x="117" y="117" xlink:href="#a"/><use x="117" y="126" xlink:href="#a"/><use x="117" y="144" xlink:href="#a"/><use x="117" y="189" xlink:href="#a"/><use x="117" y="234" xlink:href="#a"/><use x="117" y="243" xlink:href="#a"/><use x="117" y="261" xlink:href="#a"/><use x="117" y="279" xlink:href="#a"/><use x="117" y="306" xlink:href="#a"/><use x="117" y="324" xlink:href="#a"/><use x="117" y="351" xlink:href="#a"/><use x="126" y="36" xlink:href="#a"/><use x="126" y="54" xlink:href="#a"/><use x="126" y="72" xlink:href="#a"/><use x="126" y="81" xlink:href="#a"/><use x="126" y="90" xlink:href="#a"/><use x="126" y="99" xlink:href="#a"/><use x="126" y="108" xlink:href="#a"/><use x="126" y="126" xlink:href="#a"/><use x="126" y="144" xlink:href="#a"/><use x="126" y="153" xlink:href="#a"/><use x="126" y="171" xlink:href="#a"/><use x="126" y="189" xlink:href="#a"/><use x="126" y="198" xlink:href="#a"/><use x="126" y="207" xlink:href="#a"/><use x="126" y="243" xlink:href="#a"/><use x="126" y="252" xlink:href="#a"/><use x="126" y="270" xlink:href="#a"/><use x="126" y="279" xlink:href="#a"/><use x="126" y="288" xlink:href="#a"/><use x="126" y="297" xlink:href="#a"/><use x="126" y="306" xlink:href="#a"/><use x="126" y="315" xlink:href="#a"/><use x="126" y="324" xlink:href="#a"/><use x="126" y="333" xlink:href="#a"/><use x="126" y="342" xlink:href="#a"/><use x="126" y="351" xlink:href="#a"/><use x="126" y="396" xlink:href="#a"/><use x="135" y="36" xlink:href="#a"/><use x="135" y="108" xlink:href="#a"/><use x="135" y="117" xlink:href="#a"/><use x="135" y="126" xlink:href="#a"/><use x="135" y="144" xlink:href="#a"/><use x="135" y="171" xlink:href="#a"/><use x="135" y="180" xlink:href="#a"/><use x="135" y="189" xlink:href="#a"/><use x="135" y="198" xlink:href="#a"/><use x="135" y="207" xlink:href="#a"/><use x="135" y="216" xlink:href="#a"/><use x="135" y="243" xlink:href="#a"/><use x="135" y="252" xlink:href="#a"/><use x="135" y="270" xlink:href="#a"/><use x="135" y="297" xlink:href="#a"/><use x="135" y="387" xlink:href="#a"/><use x="144" y="36" xlink:href="#a"/><use x="144" y="63" xlink:href="#a"/><use x="144" y="81" xlink:href="#a"/><use x="144" y="90" xlink:href="#a"/><use x="144" y="126" xlink:href="#a"/><use x="144" y="135" xlink:href="#a"/><use x="144" y="144" xlink:href="#a"/><use x="144" y="153" xlink:href="#a"/><use x="144" y="162" xlink:href="#a"/><use x="144" y="198" xlink:href="#a"/><use x="144" y="207" xlink:href="#a"/><use x="144" y="225" xlink:href="#a"/><use x="144" y="288" xlink:href="#a"/><use x="144" y="297" xlink:href="#a"/><use x="144" y="315" xlink:href="#a"/><use x="144" y="351" xlink:href="#a"/><use x="144" y="360" xlink:href="#a"/><use x="144" y="396" xlink:href="#a"/><use x="153" y="36" xlink:href="#a"/><use x="153" y="45" xlink:href="#a"/><use x="153" y="54" xlink:href="#a"/><use x="153" y="72" xlink:href="#a"/><use x="153" y="144" xlink:href="#a"/><use x="153" y="153" xlink:href="#a"/><use x="153" y="162" xlink:href="#a"/><use x="153" y="180" xlink:href="#a"/><use x="153" y="216" xlink:href="#a"/><use x="153" y="225" xlink:href="#a"/><use x="153" y="234" xlink:href="#a"/><use x="153" y="252" xlink:href="#a"/><use x="153" y="261" xlink:href="#a"/><use x="153" y="270" xlink:href="#a"/><use x="153" y="279" xlink:href="#a"/><use x="153" y="288" xlink:href="#a"/><use x="153" y="297" xlink:href="#a"/><use x="153" y="306" xlink:href="#a"/><use x="153" y="315" xlink:href="#a"/><use x="153" y="333" xlink:href="#a"/><use x="153" y="342" xlink:href="#a"/><use x="153" y="387" xlink:href="#a"/><use x="153" y="396" xlink:href="#a"/><use x="162" y="36" xlink:href="#a"/><use x="162" y="54" xlink:href="#a"/><use x="162" y="63" xlink:href="#a"/><use x="162" y="72" xlink:href="#a"/><use x="162" y="81" xlink:href="#a"/><use x="162" y="90" xlink:href="#a"/><use x="162" y="117" xlink:href="#a"/><use x="162" y="135" xlink:href="#a"/><use x="162" y="144" xlink:href="#a"/><use x="162" y="171" xlink:href="#a"/><use x="162" y="180" xlink:href="#a"/><use x="162" y="189" xlink:href="#a"/><use x="162" y="225" xlink:href="#a"/><use x="162" y="234" xlink:href="#a"/><use x="162" y="243" xlink:href="#a"/><use x="162" y="279" xlink:href="#a"/><use x="162" y="315" xlink:href="#a"/><use x="162" y="324" xlink:href="#a"/><use x="162" y="333" xlink:href="#a"/><use x="162" y="342" xlink:href="#a"/><use x="162" y="351" xlink:href="#a"/><use x="162" y="360" xlink:href="#a"/><use x="162" y="387" xlink:href="#a"/><use x="171" y="36" xlink:href="#a"/><use x="171" y="45" xlink:href="#a"/><use x="171" y="63" xlink:href="#a"/><use x="171" y="72" xlink:href="#a"/><use x="171" y="81" xlink:href="#a"/><use x="171" y="117" xlink:href="#a"/><use x="171" y="180" xlink:href="#a"/><use x="171" y="198" xlink:href="#a"/><use x="171" y="207" xlink:href="#a"/><use x="171" y="243" xlink:href="#a"/><use x="171" y="261" xlink:href="#a"/><use x="171" y="279" xlink:href="#a"/><use x="171" y="288" xlink:href="#a"/><use x="171" y="297" xlink:href="#a"/><use x="171" y="306" xlink:href="#a"/><use x="171" y="324" xlink:href="#a"/><use x="171" y="333" xlink:href="#a"/><use x="171" y="342" xlink:href="#a"/><use x="171" y="360" xlink:href="#a"/><use x="171" y="369" xlink:href="#a"/><use x="171" y="378" xlink:href="#a"/><use x="171" y="387" xlink:href="#a"/><use x="171" y="396" xlink:href="#a"/><use x="180" y="36" xlink:href="#a"/><use x="180" y="90" xlink:href="#a"/><use x="180" y="99" xlink:href="#a"/><use x="180" y="108" xlink:href="#a"/><use x="180" y="135" xlink:href="#a"/><use x="180" y="144" xlink:href="#a"/><use x="180" y="162" xlink:href="#a"/><use x="180" y="180" xlink:href="#a"/><use x="180" y="207" xlink:href="#a"/><use x="180" y="225" xlink:href="#a"/><use x="180" y="279" xlink:href="#a"/><use x="180" y="306" xlink:href="#a"/><use x="180" y="324" xlink:href="#a"/><use x="180" y="333" xlink:href="#a"/><use x="180" y="342" xlink:href="#a"/><use x="180" y="351" xlink:href="#a"/><use x="180" y="378" xlink:href="#a"/><use x="180" y="387" xlink:href="#a"/><use x="180" y="396" xlink:href="#a"/><use x="189" y="45" xlink:href="#a"/><use x="189" y="54" xlink:href="#a"/><use x="189" y="81" xlink:href="#a"/><use x="189" y="108" xlink:href="#a"/><use x="189" y="135" xlink:href="#a"/><use x="189" y="162" xlink:href="#a"/><use x="189" y="189" xlink:href="#a"/><use x="189" y="198" xlink:href="#a"/><use x="189" y="243" xlink:href="#a"/><use x="189" y="261" xlink:href="#a"/><use x="189" y="306" xlink:href="#a"/><use x="189" y="324" xlink:href="#a"/><use x="189" y="333" xlink:href="#a"/><use x="189" y="360" xlink:href="#a"/><use x="189" y="396" xlink:href="#a"/><use x="198" y="54" xlink:href="#a"/><use x="198" y="72" xlink:href="#a"/><use x="198" y="81" xlink:href="#a"/><use x="198" y="90" xlink:href="#a"/><use x="198" y="99" xlink:href="#a"/><use x="198" y="117" xlink:href="#a"/><use x="198" y="126" xlink:href="#a"/><use x="198" y="153" xlink:href="#a"/><use x="198" y="162" xlink:href="#a"/><use x="198" y="180" xlink:href="#a"/><use x="198" y="189" xlink:href="#a"/><use x="198" y="198" xlink:href="#a"/><use x="198" y="216" xlink:href="#a"/><use x="198" y="234" xlink:href="#a"/><use x="198" y="261" xlink:href="#a"/><use x="198" y="270" xlink:href="#a"/><use x="198" y="297" xlink:href="#a"/><use x="198" y="333" xlink:href="#a"/><use x="198" y="351" xlink:href="#a"/><use x="198" y="369" xlink:href="#a"/><use x="198" y="387" xlink:href="#a"/><use x="198" y="396" xlink:href="#a"/><use x="207" y="45" xlink:href="#a"/><use x="207" y="63" xlink:href="#a"/><use x="207" y="72" xlink:href="#a"/><use x="207" y="108" xlink:href="#a"/><use x="207" y="117" xlink:href="#a"/><use x="207" y="135" xlink:href="#a"/><use x="207" y="144" xlink:href="#a"/><use x="207" y="153" xlink:href="#a"/><use x="207" y="162" xlink:href="#a"/><use x="207" y="189" xlink:href="#a"/><use x="207" y="198" xlink:href="#a"/><use x="207" y="207" xlink:href="#a"/><use x="207" y="216" xlink:href="#a"/><use x="207" y="225" xlink:href="#a"/><use x="207" y="252" xlink:href="#a"/><use x="207" y="270" xlink:href="#a"/><use x="207" y="288" xlink:href="#a"/><use x="207" y="333" xlink:href="#a"/><use x="207" y="351" xlink:href="#a"/><use x="207" y="378" xlink:href="#a"/><use x="207" y="387" xlink:href="#a"/><use x="216" y="45" xlink:href="#a"/><use x="216" y="81" xlink:href="#a"/><use x="216" y="90" xlink:href="#a"/><use x="216" y="99" xlink:href="#a"/><use x="216" y="153" xlink:href="#a"/><use x="216" y="162" xlink:href="#a"/><use x="216" y="171" xlink:href="#a"/><use x="216" y="180" xlink:href="#a"/><use x="216" y="189" xlink:href="#a"/><use x="216" y="198" xlink:href="#a"/><use x="216" y="207" xlink:href="#a"/><use x="216" y="216" xlink:href="#a"/><use x="216" y="243" xlink:href="#a"/><use x="216" y="270" xlink:href="#a"/><use x="216" y="279" xlink:href="#a"/><use x="216" y="288" xlink:href="#a"/><use x="216" y="297" xlink:href="#a"/><use x="216" y="306" xlink:href="#a"/><use x="216" y="324" xlink:href="#a"/><use x="216" y="351" xlink:href="#a"/><use x="216" y="360" xlink:href="#a"/><use x="216" y="387" xlink:href="#a"/><use x="225" y="54" xlink:href="#a"/><use x="225" y="72" xlink:href="#a"/><use x="225" y="126" xlink:href="#a"/><use x="225" y="189" xlink:href="#a"/><use x="225" y="207" xlink:href="#a"/><use x="225" y="216" xlink:href="#a"/><use x="225" y="306" xlink:href="#a"/><use x="225" y="342" xlink:href="#a"/><use x="225" y="360" xlink:href="#a"/><use x="225" y="369" xlink:href="#a"/><use x="225" y="378" xlink:href="#a"/><use x="234" y="45" xlink:href="#a"/><use x="234" y="54" xlink:href="#a"/><use x="234" y="63" xlink:href="#a"/><use x="234" y="81" xlink:href="#a"/><use x="234" y="90" xlink:href="#a"/><use x="234" y="99" xlink:href="#a"/><use x="234" y="126" xlink:href="#a"/><use x="234" y="162" xlink:href="#a"/><use x="234" y="180" xlink:href="#a"/><use x="234" y="225" xlink:href="#a"/><use x="234" y="234" xlink:href="#a"/><use x="234" y="243" xlink:href="#a"/><use x="234" y="288" xlink:href="#a"/><use x="234" y="333" xlink:href="#a"/><use x="234" y="360" xlink:href="#a"/><use x="234" y="369" xlink:href="#a"/><use x="234" y="387" xlink:href="#a"/><use x="234" y="396" xlink:href="#a"/><use x="243" y="54" xlink:href="#a"/><use x="243" y="63" xlink:href="#a"/><use x="243" y="81" xlink:href="#a"/><use x="243" y="99" xlink:href="#a"/><use x="243" y="117" xlink:href="#a"/><use x="243" y="126" xlink:href="#a"/><use x="243" y="135" xlink:href="#a"/><use x="243" y="144" xlink:href="#a"/><use x="243" y="153" xlink:href="#a"/><use x="243" y="198" xlink:href="#a"/><use x="243" y="207" xlink:href="#a"/><use x="243" y="225" xlink:href="#a"/><use x="243" y="234" xlink:href="#a"/><use x="243" y="261" xlink:href="#a"/><use x="243" y="279" xlink:href="#a"/><use x="243" y="288" xlink:href="#a"/><use x="243" y="306" xlink:href="#a"/><use x="243" y="333" xlink:href="#a"/><use x="243" y="342" xlink:href="#a"/><use x="243" y="351" xlink:href="#a"/><use x="243" y="360" xlink:href="#a"/><use x="252" y="54" xlink:href="#a"/><use x="252" y="63" xlink:href="#a"/><use x="252" y="81" xlink:href="#a"/><use x="252" y="90" xlink:href="#a"/><use x="252" y="99" xlink:href="#a"/><use x="252" y="108" xlink:href="#a"/><use x="252" y="126" xlink:href="#a"/><use x="252" y="135" xlink:href="#a"/><use x="252" y="144" xlink:href="#a"/><use x="252" y="180" xlink:href="#a"/><use x="252" y="207" xlink:href="#a"/><use x="252" y="270" xlink:href="#a"/><use x="252" y="279" xlink:href="#a"/><use x="252" y="288" xlink:href="#a"/><use x="252" y="306" xlink:href="#a"/><use x="252" y="324" xlink:href="#a"/><use x="252" y="351" xlink:href="#a"/><use x="252" y="378" xlink:href="#a"/><use x="261" y="45" xlink:href="#a"/><use x="261" y="54" xlink:href="#a"/><use x="261" y="63" xlink:href="#a"/><use x="261" y="99" xlink:href="#a"/><use x="261" y="180" xlink:href="#a"/><use x="261" y="189" xlink:href="#a"/><use x="261" y="207" xlink:href="#a"/><use x="261" y="225" xlink:href="#a"/><use x="261" y="234" xlink:href="#a"/><use x="261" y="261" xlink:href="#a"/><use x="261" y="270" xlink:href="#a"/><use x="261" y="288" xlink:href="#a"/><use x="261" y="315" xlink:href="#a"/><use x="261" y="333" xlink:href="#a"/><use x="261" y="369" xlink:href="#a"/><use x="261" y="378" xlink:href="#a"/><use x="261" y="396" xlink:href="#a"/><use x="270" y="45" xlink:href="#a"/><use x="270" y="63" xlink:href="#a"/><use x="270" y="72" xlink:href="#a"/><use x="270" y="90" xlink:href="#a"/><use x="270" y="108" xlink:href="#a"/><use x="270" y="117" xlink:href="#a"/><use x="270" y="135" xlink:href="#a"/><use x="270" y="153" xlink:href="#a"/><use x="270" y="162" xlink:href="#a"/><use x="270" y="207" xlink:href="#a"/><use x="270" y="216" xlink:href="#a"/><use x="270" y="225" xlink:href="#a"/><use x="270" y="261" xlink:href="#a"/><use x="270" y="306" xlink:href="#a"/><use x="270" y="315" xlink:href="#a"/><use x="270" y="324" xlink:href="#a"/><use x="270" y="333" xlink:href="#a"/><use x="270" y="342" xlink:href="#a"/><use x="270" y="378" xlink:href="#a"/><use x="270" y="387" xlink:href="#a"/><use x="279" y="36" xlink:href="#a"/><use x="279" y="54" xlink:href="#a"/><use x="279" y="63" xlink:href="#a"/><use x="279" y="99" xlink:href="#a"/><use x="279" y="108" xlink:href="#a"/><use x="279" y="117" xlink:href="#a"/><use x="279" y="126" xlink:href="#a"/><use x="279" y="135" xlink:href="#a"/><use x="279" y="144" xlink:href="#a"/><use x="279" y="153" xlink:href="#a"/><use x="279" y="162" xlink:href="#a"/><use x="279" y="180" xlink:href="#a"/><use x="279" y="189" xlink:href="#a"/><use x="279" y="198" xlink:href="#a"/><use x="279" y="216" xlink:href="#a"/><use x="279" y="225" xlink:href="#a"/><use x="279" y="234" xlink:href="#a"/><use x="279" y="261" xlink:href="#a"/><use x="279" y="270" xlink:href="#a"/><use x="279" y="279" xlink:href="#a"/><use x="279" y="297" xlink:href="#a"/><use x="279" y="306" xlink:href="#a"/><use x="279" y="324" xlink:href="#a"/><use x="279" y="333" xlink:href="#a"/><use x="279" y="342" xlink:href="#a"/><use x="279" y="369" xlink:href="#a"/><use x="279" y="378" xlink:href="#a"/><use x="279" y="387" xlink:href="#a"/><use x="279" y="396" xlink:href="#a"/><use x="288" y="54" xlink:href="#a"/><use x="288" y="72" xlink:href="#a"/><use x="288" y="90" xlink:href="#a"/><use x="288" y="108" xlink:href="#a"/><use x="288" y="126" xlink:href="#a"/><use x="288" y="135" xlink:href="#a"/><use x="288" y="153" xlink:href="#a"/><use x="288" y="198" xlink:href="#a"/><use x="288" y="207" xlink:href="#a"/><use x="288" y="234" xlink:href="#a"/><use x="288" y="243" xlink:href="#a"/><use x="288" y="261" xlink:href="#a"/><use x="288" y="279" xlink:href="#a"/><use x="288" y="306" xlink:href="#a"/><use x="288" y="315" xlink:href="#a"/><use x="288" y="342" xlink:href="#a"/><use x="288" y="351" xlink:href="#a"/><use x="288" y="360" xlink:href="#a"/><use x="288" y="369" xlink:href="#a"/><use x="288" y="378" xlink:href="#a"/><use x="297" y="45" xlink:href="#a"/><use x="297" y="63" xlink:href="#a"/><use x="297" y="108" xlink:href="#a"/><use x="297" y="117" xlink:href="#a"/><use x="297" y="135" xlink:href="#a"/><use x="297" y="153" xlink:href="#a"/><use x="297" y="162" xlink:href="#a"/><use x="297" y="198" xlink:href="#a"/><use x="297" y="216" xlink:href="#a"/><use x="297" y="225" xlink:href="#a"/><use x="297" y="234" xlink:href="#a"/><use x="297" y="243" xlink:href="#a"/><use x="297" y="261" xlink:href="#a"/><use x="297" y="270" xlink:href="#a"/><use x="297" y="297" xlink:href="#a"/><use x="297" y="324" xlink:href="#a"/><use x="297" y="333" xlink:href="#a"/><use x="297" y="351" xlink:href="#a"/><use x="306" y="72" xlink:href="#a"/><use x="306" y="90" xlink:href="#a"/><use x="306" y="117" xlink:href="#a"/><use x="306" y="144" xlink:href="#a"/><use x="306" y="153" xlink:href="#a"/><use x="306" y="198" xlink:href="#a"/><use x="306" y="225" xlink:href="#a"/><use x="306" y="243" xlink:href="#a"/><use x="306" y="261" xlink:href="#a"/><use x="306" y="333" xlink:href="#a"/><use x="306" y="351" xlink:href="#a"/><use x="306" y="369" xlink:href="#a"/><use x="315" y="36" xlink:href="#a"/><use x="315" y="45" xlink:href="#a"/><use x="315" y="72" xlink:href="#a"/><use x="315" y="99" xlink:href="#a"/><use x="315" y="117" xlink:href="#a"/><use x="315" y="135" xlink:href="#a"/><use x="315" y="162" xlink:href="#a"/><use x="315" y="171" xlink:href="#a"/><use x="315" y="189" xlink:href="#a"/><use x="315" y="198" xlink:href="#a"/><use x="315" y="225" xlink:href="#a"/><use x="315" y="243" xlink:href="#a"/><use x="315" y="270" xlink:href="#a"/><use x="315" y="279" xlink:href="#a"/><use x="315" y="288" xlink:href="#a"/><use x="315" y="297" xlink:href="#a"/><use x="315" y="306" xlink:href="#a"/><use x="315" y="342" xlink:href="#a"/><use x="315" y="351" xlink:href="#a"/><use x="315" y="360" xlink:href="#a"/><use x="315" y="378" xlink:href="#a"/><use x="324" y="54" xlink:href="#a"/><use x="324" y="63" xlink:href="#a"/><use x="324" y="81" xlink:href="#a"/><use x="324" y="90" xlink:href="#a"/><use x="324" y="99" xlink:href="#a"/><use x="324" y="135" xlink:href="#a"/><use x="324" y="144" xlink:href="#a"/><use x="324" y="153" xlink:href="#a"/><use x="324" y="162" xlink:href="#a"/><use x="324" y="171" xlink:href="#a"/><use x="324" y="180" xlink:href="#a"/><use x="324" y="189" xlink:href="#a"/><use x="324" y="198" xlink:href="#a"/><use x="324" y="234" xlink:href="#a"/><use x="324" y="243" xlink:href="#a"/><use x="324" y="252" xlink:href="#a"/><use x="324" y="261" xlink:href="#a"/><use x="324" y="270" xlink:href="#a"/><use x="324" y="297" xlink:href="#a"/><use x="324" y="306" xlink:href="#a"/><use x="324" y="315" xlink:href="#a"/><use x="324" y="324" xlink:href="#a"/><use x="324" y="333" xlink:href="#a"/><use x="324" y="342" xlink:href="#a"/><use x="324" y="351" xlink:href="#a"/><use x="324" y="360" xlink:href="#a"/><use x="324" y="369" xlink:href="#a"/><use x="324" y="378" xlink:href="#a"/><use x="324" y="396" xlink:href="#a"/><use x="333" y="108" xlink:href="#a"/><use x="333" y="117" xlink:href="#a"/><use x="333" y="126" xlink:href="#a"/><use x="333" y="135" xlink:href="#a"/><use x="333" y="153" xlink:href="#a"/><use x="333" y="162" xlink:href="#a"/><use x="333" y="171" xlink:href="#a"/><use x="333" y="180" xlink:href="#a"/><use x="333" y="189" xlink:href="#a"/><use x="333" y="207" xlink:href="#a"/><use x="333" y="306" xlink:href="#a"/><use x="333" y="324" xlink:href="#a"/><use x="333" y="360" xlink:href="#a"/><use x="333" y="378" xlink:href="#a"/><use x="333" y="396" xlink:href="#a"/><use x="342" y="36" xlink:href="#a"/><use x="342" y="45" xlink:href="#a"/><use x="342" y="54" xlink:href="#a"/><use x="342" y="63" xlink:href="#a"/><use x="342" y="72" xlink:href="#a"/><use x="342" y="81" xlink:href="#a"/><use x="342" y="90" xlink:href="#a"/><use x="342" y="126" xlink:href="#a"/><use x="342" y="135" xlink:href="#a"/><use x="342" y="144" xlink:href="#a"/><use x="342" y="153" xlink:href="#a"/><use x="342" y="162" xlink:href="#a"/><use x="342" y="198" xlink:href="#a"/><use x="342" y="216" xlink:href="#a"/><use x="342" y="243" xlink:href="#a"/><use x="342" y="252" xlink:href="#a"/><use x="342" y="261" xlink:href="#a"/><use x="342" y="270" xlink:href="#a"/><use x="342" y="315" xlink:href="#a"/><use x="342" y="324" xlink:href="#a"/><use x="342" y="342" xlink:href="#a"/><use x="342" y="360" xlink:href="#a"/><use x="342" y="387" xlink:href="#a"/><use x="342" y="396" xlink:href="#a"/><use x="351" y="36" xlink:href="#a"/><use x="351" y="90" xlink:href="#a"/><use x="351" y="117" xlink:href="#a"/><use x="351" y="135" xlink:href="#a"/><use x="351" y="153" xlink:href="#a"/><use x="351" y="198" xlink:href="#a"/><use x="351" y="225" xlink:href="#a"/><use x="351" y="243" xlink:href="#a"/><use x="351" y="261" xlink:href="#a"/><use x="351" y="270" xlink:href="#a"/><use x="351" y="279" xlink:href="#a"/><use x="351" y="288" xlink:href="#a"/><use x="351" y="306" xlink:href="#a"/><use x="351" y="315" xlink:href="#a"/><use x="351" y="324" xlink:href="#a"/><use x="351" y="360" xlink:href="#a"/><use x="351" y="369" xlink:href="#a"/><use x="351" y="378" xlink:href="#a"/><use x="360" y="36" xlink:href="#a"/><use x="360" y="54" xlink:href="#a"/><use x="360" y="63" xlink:href="#a"/><use x="360" y="72" xlink:href="#a"/><use x="360" y="90" xlink:href="#a"/><use x="360" y="108" xlink:href="#a"/><use x="360" y="117" xlink:href="#a"/><use x="360" y="135" xlink:href="#a"/><use x="360" y="153" xlink:href="#a"/><use x="360" y="162" xlink:href="#a"/><use x="360" y="189" xlink:href="#a"/><use x="360" y="198" xlink:href="#a"/><use x="360" y="207" xlink:href="#a"/><use x="360" y="225" xlink:href="#a"/><use x="360" y="261" xlink:href="#a"/><use x="360" y="270" xlink:href="#a"/><use x="360" y="279" xlink:href="#a"/><use x="360" y="297" xlink:href="#a"/><use x="360" y="306" xlink:href="#a"/><use x="360" y="315" xlink:href="#a"/><use x="360" y="324" xlink:href="#a"/><use x="360" y="333" xlink:href="#a"/><use x="360" y="342" xlink:href="#a"/><use x="360" y="351" xlink:href="#a"/><use x="360" y="360" xlink:href="#a"/><use x="360" y="378" xlink:href="#a"/><use x="360" y="387" xlink:href="#a"/><use x="360" y="396" xlink:href="#a"/><use x="369" y="36" xlink:href="#a"/><use x="369" y="54" xlink:href="#a"/><use x="369" y="63" xlink:href="#a"/><use x="369" y="72" xlink:href="#a"/><use x="369" y="90" xlink:href="#a"/><use x="369" y="135" xlink:href="#a"/><use x="369" y="171" xlink:href="#a"/><use x="369" y="189" xlink:href="#a"/><use x="369" y="234" xlink:href="#a"/><use x="369" y="243" xlink:href="#a"/><use x="369" y="270" xlink:href="#a"/><use x="369" y="279" xlink:href="#a"/><use x="369" y="288" xlink:href="#a"/><use x="369" y="333" xlink:href="#a"/><use x="369" y="351" xlink:href="#a"/><use x="369" y="360" xlink:href="#a"/><use x="369" y="369" xlink:href="#a"/><use x="369" y="378" xlink:href="#a"/><use x="369" y="387" xlink:href="#a"/><use x="378" y="36" xlink:href="#a"/><use x="378" y="54" xlink:href="#a"/><use x="378" y="63" xlink:href="#a"/><use x="378" y="72" xlink:href="#a"/><use x="378" y="90" xlink:href="#a"/><use x="378" y="108" xlink:href="#a"/><use x="378" y="126" xlink:href="#a"/><use x="378" y="153" xlink:href="#a"/><use x="378" y="162" xlink:href="#a"/><use x="378" y="171" xlink:href="#a"/><use x="378" y="189" xlink:href="#a"/><use x="378" y="207" xlink:href="#a"/><use x="378" y="216" xlink:href="#a"/><use x="378" y="225" xlink:href="#a"/><use x="378" y="234" xlink:href="#a"/><use x="378" y="261" xlink:href="#a"/><use x="378" y="279" xlink:href="#a"/><use x="378" y="297" xlink:href="#a"/><use x="378" y="306" xlink:href="#a"/><use x="378" y="315" xlink:href="#a"/><use x="378" y="324" xlink:href="#a"/><use x="378" y="333" xlink:href="#a"/><use x="378" y="342" xlink:href="#a"/><use x="378" y="369" xlink:href="#a"/><use x="378" y="378" xlink:href="#a"/><use x="378" y="387" xlink:href="#a"/><use x="387" y="36" xlink:href="#a"/><use x="387" y="90" xlink:href="#a"/><use x="387" y="108" xlink:href="#a"/><use x="387" y="144" xlink:href="#a"/><use x="387" y="153" xlink:href="#a"/><use x="387" y="243" xlink:href="#a"/><use x="387" y="252" xlink:href="#a"/><use x="387" y="279" xlink:href="#a"/><use x="387" y="288" xlink:href="#a"/><use x="387" y="315" xlink:href="#a"/><use x="387" y="342" xlink:href="#a"/><use x="387" y="360" xlink:href="#a"/><use x="396" y="36" xlink:href="#a"/><use x="396" y="45" xlink:href="#a"/><use x="396" y="54" xlink:href="#a"/><use x="396" y="63" xlink:href="#a"/><use x="396" y="72" xlink:href="#a"/><use x="396" y="81" xlink:href="#a"/><use x="396" y="90" xlink:href="#a"/><use x="396" y="108" xlink:href="#a"/><use x="396" y="135" xlink:href="#a"/><use x="396" y="162" xlink:href="#a"/><use x="396" y="180" xlink:href="#a"/><use x="396" y="198" xlink:href="#a"/><use x="396" y="207" xlink:href="#a"/><use x="396" y="252" xlink:href="#a"/><use x="396" y="261" xlink:href="#a"/><use x="396" y="270" xlink:href="#a"/><use x="396" y="288" xlink:href="#a"/><use x="396" y="306" xlink:href="#a"/><use x="396" y="315" xlink:href="#a"/><use x="396" y="351" xlink:href="#a"/><use x="396" y="369" xlink:href="#a"/><use x="396" y="378" xlink:href="#a"/><use x="396" y="387" xlink:href="#a"/></svg>