<svg id="Layer_1" xmlns="http://www.w3.org/2000/svg" viewBox="0 0 401.5 326.3"><style>.st0{fill:#1da1f2}</style><g id="XMLID_33_"><g id="XMLID_35_"><path id="XMLID_32_" class="st0" d="M126.3 326.3c151.5 0 234.3-125.5 234.3-234.3 0-3.6-.1-7.1-.2-10.6 16.1-11.6 30.1-26.1 41.1-42.6-14.8 6.6-30.6 11-47.3 13 17-10.2 30.1-26.3 36.2-45.6-15.9 9.4-33.5 16.3-52.3 20-15-16-36.4-26-60.1-26-45.5 0-82.4 36.9-82.4 82.4 0 6.5.7 12.7 2.1 18.8-68.4-3.7-129.1-36.5-169.8-86.3-7.1 12.2-11.2 26.3-11.2 41.4 0 28.6 14.5 53.8 36.7 68.6-13.5-.4-26.2-4.1-37.3-10.3v1.1c0 39.9 28.4 73.2 66.1 80.7-6.9 1.9-14.2 2.9-21.7 2.9-5.3 0-10.5-.5-15.5-1.5 10.5 32.7 40.9 56.5 76.9 57.2-28.2 22.1-63.7 35.3-102.3 35.3-6.6 0-13.2-.4-19.6-1.1 36.5 23.2 79.7 36.9 126.3 36.9"/></g></g></svg>